# xmcd CD database file
#
# Track frame offsets:
#	150
#	20867
#	43584
#	66483
#	71760
#	92838
#	110508
#	130507
#	150998
#	175269
#	196954
#	220563
#
# Disc length: 3215 seconds
#
# Revision: 0
# Processed by: cddbd v1.5.1PL0 Copyright (c) Steve Scherf et al.
# Submitted via: CDex 1.51
#
DISCID=a60c8d0c
DTITLE=Oliver Mochmann - Turn The Grey Sky Blue
DYEAR=1998
DGENRE=Jazz
TTITLE0=Turn The Grey Sky Blue
TTITLE1=Earthquake
TTITLE2=The American Dream
TTITLE3=Emergency (Interlude)
TTITLE4=Think Positive
TTITLE5=On The Playground
TTITLE6=Floating On Air
TTITLE7=Soft Turbulences During A High Fly In A Morning Sunrise
TTITLE8=Silent Talk
TTITLE9=Low Society
TTITLE10=Looking For Trouble?
TTITLE11=Mysterious Hichhiker
EXTD=YEAR: 1998
EXTT0=
EXTT1=
EXTT2=
EXTT3=
EXTT4=
EXTT5=
EXTT6=
EXTT7=
EXTT8=
EXTT9=
EXTT10=
EXTT11=
PLAYORDER=
